<?xml version="1.0" encoding="UTF-8"?>
<!-- generated by Finnhub -->
<svg viewBox="0 0 55.5 55.5" xmlns="http://www.w3.org/2000/svg">
<path d="M 0,0 H 55.5 V 55.5 H 0 Z" fill="rgb(18, 123, 169)"/>
<path d="M 7.99,34.985 L 12.395,31 L 16.79,35 H 8 Z M 18.414,35 L 22.809,31 L 27.204,35 H 18.414 Z M 28.796,35 L 33.191,31 L 37.618,35 H 28.796 Z M 39.21,35 L 43.605,31 L 48,35 H 39.21 Z M 30.198,18.719 C 30.643,19.368 31.248,20.568 31.248,21.216 C 31.248,23.324 29.783,24.589 27.968,24.589 C 26.185,24.589 24.784,23.292 24.784,21.216 C 24.784,20.536 25.42,19.206 25.962,18.459 C 26.599,17.616 27.172,17 27.968,17 C 28.828,17 29.528,17.746 30.198,18.719 Z M 33.223,22.06 C 33.828,22.06 35.102,23.26 35.58,23.843 C 35.898,24.265 37.045,25.692 37.045,26.081 C 37.045,27.411 34.529,29.616 33.223,29.616 C 31.949,29.616 29.465,27.443 29.465,26.081 C 29.465,25.66 30.707,24.071 31.089,23.616 C 31.535,23.097 32.618,22.06 33.223,22.06 Z M 22.745,22.06 C 23.35,22.06 24.625,23.26 25.102,23.843 C 25.42,24.265 26.567,25.692 26.567,26.081 C 26.567,27.411 24.051,29.616 22.745,29.616 S 18.987,27.443 18.987,26.081 C 18.987,25.66 20.229,24.071 20.612,23.616 C 21.089,23.097 22.172,22.06 22.745,22.06 Z M 38.446,26.892 C 38.764,26.892 40.516,28.449 40.771,28.741 C 40.93,28.935 42.554,30.524 42.554,30.719 C 42.554,31.335 39.083,34.286 38.446,34.286 C 37.809,34.286 34.37,31.336 34.37,30.719 C 34.37,30.524 36.153,28.773 36.344,28.546 C 36.567,28.286 38.127,26.892 38.446,26.892 Z M 27.968,26.892 C 28.287,26.892 30.038,28.449 30.293,28.741 C 30.453,28.935 32.076,30.524 32.076,30.719 C 32.076,31.335 28.605,34.286 27.968,34.286 C 27.331,34.286 23.892,31.336 23.892,30.719 C 23.892,30.524 25.675,28.773 25.866,28.546 C 26.121,28.286 27.681,26.892 27.968,26.892 Z M 17.586,26.892 C 17.905,26.892 19.656,28.449 19.911,28.741 C 20.071,28.935 21.694,30.524 21.694,30.719 C 21.694,31.335 18.223,34.286 17.586,34.286 C 16.949,34.286 13.51,31.336 13.51,30.719 C 13.51,30.524 15.293,28.773 15.484,28.546 C 15.739,28.286 17.299,26.892 17.586,26.892 Z" fill="rgb(254, 254, 253)"/>
</svg>
