<?xml version="1.0" encoding="UTF-8"?>
<!-- generated by Finnhub -->
<svg viewBox="0 0 55.5 55.5" xmlns="http://www.w3.org/2000/svg">
<path d="M 0,0 H 55.5 V 55.5 H 0 Z" fill="rgb(239, 242, 248)"/>
<path d="M 27.869999999999997,29.945 S 30.44,22.98 27.96,18.32 C 27.96,18.32 31.24,21.79 29.76,29.88 C 29.76,29.88 28.2,30.08 27.88,29.96 Z" fill="url(#b)"/>
<path d="M 20.729999999999997,14.385 C 17.73,18.07 19.54,23.1 19.54,23.1 C 18.72,18.51 19.64,16.97 21.4,14.9 C 23.15,12.82 26.5,11.61 30.16,12.65 C 33.83,13.69 36.41,18.19 35.37,22.35 S 30.43,27.38 30.43,27.38 V 28.48 C 36.57,26.5 37.2,22.06 36.96,19.04 C 36.74,16.47 34.91,12.84 31.5,11.59 C 28.45,10.46 23.75,10.73 20.74,14.4 Z M 27.82,28.74 L 28.12,27.64 C 22.42,27.09 24.48,21.61 24.49,21.61 C 26.47,16.9 26.01,16.26 26.01,16.26 C 33.18,16.6 33.73,23.34 33.73,23.34 C 33.98,13.39 23.65,14.36 23.65,14.36 C 24.86,15.38 22.59,20.6 22.59,20.6 S 21.4,23.13 22.54,25.83 S 27.82,28.73 27.82,28.73 Z" fill="url(#a)"/>
<path d="M 14.75,37.985 H 16 L 12.92,30 H 11.52 L 9.95,34.1 A 6,6 0 0,0 8,34.66 C 8.6,34.55 9.2,34.49 9.8,34.5 L 8.44,38 H 9.64 L 10.94,34.6 C 12.08,34.77 13.15,35.3 14.03,36.12 L 14.75,38 Z M 12.21,31.26 L 13.49,34.7 A 6.08,6.08 0 0,0 11.14,34.06 L 12.21,31.26 Z M 39,36.42 V 30 H 37.7 V 32.97 H 37.66 C 37.36,32.53 36.66,32.13 35.59,32.13 C 33.92,32.13 32.49,33.26 32.5,35.14 C 32.5,36.84 33.8,38 35.46,38 C 36.58,38 37.41,37.52 37.79,36.9 H 37.82 L 37.88,38 H 39 V 36.42 Z M 37.64,34.09 C 37.67,34.24 37.69,34.39 37.69,34.53 V 35.51 C 37.69,35.66 37.68,35.81 37.64,35.95 C 37.41,36.71 36.64,37.17 35.8,37.17 C 34.47,37.17 33.77,36.23 33.77,35.08 C 33.77,33.85 34.54,32.92 35.83,32.92 C 36.76,32.92 37.45,33.45 37.63,34.09 Z M 17,32 V 38 H 18.32 V 34.86 C 18.32,34.69 18.33,34.52 18.36,34.36 C 18.44,33.96 18.66,33.6 18.96,33.36 C 19.28,33.1 19.66,32.97 20.06,32.99 C 20.2,32.99 20.31,32.99 20.43,33.01 H 20.5 V 32.04 A 2.03,2.03 0 0,0 19,32.34 C 18.65,32.56 18.37,32.89 18.2,33.28 H 18.16 L 18.11,32 H 17 Z M 24.03,38 C 24.7,38 25.37,37.9 26.01,37.67 L 25.8,36.88 C 25.3,37.07 24.78,37.16 24.26,37.16 C 22.89,37.16 21.86,36.34 21.86,35.01 C 21.86,33.81 22.72,32.83 24.3,32.83 C 24.8,32.82 25.3,32.91 25.75,33.1 L 26.04,32.3 A 4.62,4.62 0 0,0 24.3,32 C 22.06,32 20.6,33.28 20.6,35.05 C 20.6,36.82 21.95,37.99 24.03,37.99 Z M 32,36.5 V 38 H 31 L 30.96,37.15 H 30.91 C 30.54,37.6 29.79,38 28.81,38 C 27.41,38 26.71,37.18 26.71,36.35 C 26.71,34.96 28.18,34.2 30.85,34.21 V 34.1 C 30.85,33.62 30.69,32.76 29.28,32.77 C 28.66,32.76 28.03,32.9 27.48,33.19 L 27.18,32.49 C 27.9,32.16 28.68,31.99 29.47,32 C 31.59,32 32,33.2 32,34.35 V 36.49 Z M 30.87,34.94 C 29.5,34.92 27.95,35.12 27.95,36.24 C 27.95,36.92 28.49,37.23 29.12,37.23 C 30.03,37.23 30.62,36.75 30.82,36.27 C 30.85,36.17 30.87,36.05 30.87,35.94 V 34.94 Z M 40.47,32 V 38 H 41.72 V 32 H 40.47 Z M 48,36.5 V 38 H 47 L 46.88,37.15 H 46.84 C 46.47,37.6 45.71,38 44.74,38 C 43.33,38 42.63,37.18 42.63,36.35 C 42.63,34.96 44.11,34.2 46.77,34.21 V 34.1 C 46.77,33.62 46.62,32.76 45.21,32.77 C 44.58,32.76 43.96,32.91 43.4,33.19 L 43.1,32.49 C 43.82,32.16 44.6,31.99 45.39,32 C 47.5,32 48,33.2 48,34.35 V 36.49 Z M 46.8,34.94 C 45.43,34.92 43.87,35.12 43.87,36.24 C 43.87,36.92 44.41,37.23 45.04,37.23 C 45.95,37.23 46.54,36.75 46.74,36.27 A 0.9,0.9 0 0,0 46.79,35.94 V 34.94 Z M 41.68,31.17 A 0.75,0.75 0 1,0 40.44,30.33 A 0.75,0.75 0 0,0 41.68,31.17 Z"/>
<defs>
<linearGradient id="b" x1="29.01" x2="29.01" y1="18.32" y2="30" gradientUnits="userSpaceOnUse">
<stop stop-color="rgb(124, 141, 212)" offset="0"/>
<stop stop-color="rgb(56, 81, 156)" offset="1"/>
</linearGradient>
<linearGradient id="a" x1="20.5" x2="28.08" y1="13.47" y2="28.7" gradientUnits="userSpaceOnUse">
<stop stop-color="rgb(109, 176, 21)" offset="0"/>
<stop stop-color="rgb(147, 221, 58)" offset=".38"/>
<stop stop-color="rgb(117, 194, 25)" offset="1"/>
</linearGradient>
</defs>
</svg>
