<svg height="529" width="2500" xmlns="http://www.w3.org/2000/svg" viewBox="0 -0.023293073153024646 340 72.04814588747861"><path d="M232.75 26.05a.56.56 0 0 0 .52-.6.56.56 0 0 0-1.12.08.56.56 0 0 0 .6.51M197.13 7.89a1.63 1.63 0 1 0 1.63-1.63 1.63 1.63 0 0 0-1.63 1.63zm10.35 3.5a1.64 1.64 0 1 0 1.64-1.64 1.63 1.63 0 0 0-1.63 1.63m-39 42.69a1.64 1.64 0 1 0 1.65-1.63 1.63 1.63 0 0 0-1.64 1.62m8.05 6.78a1.64 1.64 0 1 0 1.64-1.64 1.65 1.65 0 0 0-1.63 1.64M186.82 64a1.64 1.64 0 1 0 1.64-1.64 1.63 1.63 0 0 0-1.64 1.64m10.54-.13A1.63 1.63 0 1 0 199 62.2a1.63 1.63 0 0 0-1.64 1.67zm10.12-3.21a1.64 1.64 0 1 0 1.66-1.66 1.63 1.63 0 0 0-1.64 1.64m8.06-6.48a1.64 1.64 0 1 0 1.64-1.64 1.63 1.63 0 0 0-1.64 1.64m-.11-36.3a1.63 1.63 0 1 0 1.63-1.64 1.63 1.63 0 0 0-1.63 1.64zM204 13.54a2.08 2.08 0 1 0-2.08 2.09 2.08 2.08 0 0 0 2.08-2.09zm7 4.31a2.08 2.08 0 1 0-2.08 2.09 2.08 2.08 0 0 0 2.08-2.09zm5.46 6.15a2.09 2.09 0 1 0-2.09 2.09 2.08 2.08 0 0 0 2.09-2.09zM201.49.61A.56.56 0 0 0 201 0a.57.57 0 0 0-.61.51.57.57 0 0 0 .51.61.55.55 0 0 0 .6-.5m13.94 5.06a.55.55 0 0 0-.5-.6.57.57 0 0 0-.55.57.57.57 0 0 0 .46.54.56.56 0 0 0 .6-.51m10.95 7.86a.56.56 0 0 0-.51-.61.55.55 0 0 0-.6.5.57.57 0 0 0 .44.66.58.58 0 0 0 .66-.45.41.41 0 0 0 0-.11m-18.95-7.26a1.06 1.06 0 1 0-1.15 1 1.06 1.06 0 0 0 1.15-1zm10.63 5.32a1.06 1.06 0 0 0-1-1.15 1.06 1.06 0 1 0-.28 2.1h.1a1.05 1.05 0 0 0 1.14-1m7.28 7.57a1.06 1.06 0 1 0 1 1.15 1.06 1.06 0 0 0-1-1.15zM193.6 3.35a1.07 1.07 0 1 0 1.06 1.08 1.05 1.05 0 0 0-1.06-1.06m-5.16 2.91a1.64 1.64 0 1 0 1.63 1.65 1.63 1.63 0 0 0-1.63-1.63m-10.35 3.45a1.64 1.64 0 1 0 1.63 1.65 1.65 1.65 0 0 0-1.63-1.64m-15.15 24.67a1.64 1.64 0 1 0 1.63 1.65 1.63 1.63 0 0 0-1.63-1.63m2-9.63a1.64 1.64 0 1 0 1.63 1.65A1.63 1.63 0 0 0 165 24.8m5.21-8.59a1.64 1.64 0 1 0 1.63 1.65 1.65 1.65 0 0 0-1.63-1.64m23.39 45.66a2.09 2.09 0 1 0-2.08-2.1 2.09 2.09 0 0 0 2.08 2.09m0-47.48a2.09 2.09 0 1 0-2.08-2.1 2.09 2.09 0 0 0 2.08 2.09m-8.3 1.23a2.09 2.09 0 1 0-2.08-2.1 2.08 2.08 0 0 0 2.07 2.09m-7 4.31a2.09 2.09 0 1 0-2.08-2.1 2.08 2.08 0 0 0 2.07 2.09m-5.52 6.18a2.09 2.09 0 1 0-2-2.14 2.08 2.08 0 0 0 2.07 2.09m-2.27 7.77a2.09 2.09 0 1 0-2.08-2.1 2.08 2.08 0 0 0 2.08 2.08m15.75-32.66a.57.57 0 0 0 .51-.61.57.57 0 0 0-.61-.51.55.55 0 0 0-.5.61.55.55 0 0 0 .59.51m-13.93 5.06a.55.55 0 0 0 .51-.59.56.56 0 0 0-.6-.51.55.55 0 0 0-.51.59.56.56 0 0 0 .6.51m60.38 43.71a.56.56 0 0 0 0-1.12h-.12a.55.55 0 0 0-.51.59.56.56 0 0 0 .6.51m-6.68 9.3a.58.58 0 0 0 .51-.61.57.57 0 0 0-.61-.51.57.57 0 0 0-.51.61.56.56 0 0 0 .61.51M214.92 67a.55.55 0 0 0 .51-.59.56.56 0 1 0-1.12 0 .41.41 0 0 0 0 .11.55.55 0 0 0 .6.5M201 72a.56.56 0 0 0-.09-1.12A.56.56 0 0 0 201 72m-14.68 0a.56.56 0 1 0-.1-1.12.56.56 0 0 0 .09 1.12m-13.94-5.07a.55.55 0 0 0 .51-.59.56.56 0 0 0-.6-.51.55.55 0 0 0-.51.59.56.56 0 0 0 .6.51m-11-7.85a.56.56 0 0 0 .52-.6.56.56 0 1 0-1.12.08.56.56 0 0 0 .6.51m-6.88-9.19a.56.56 0 0 0 0-1.12h-.12a.56.56 0 0 0 .09 1.11M161.42 14a.56.56 0 0 0 .52-.6.56.56 0 0 0-1.12.08.56.56 0 0 0 .6.51m19.49-6.81a1.06 1.06 0 0 0-.18-2.11 1.06 1.06 0 0 0 .14 2.11m-10.64 5.32a1 1 0 1 0-.1 0zm-9.38 7.76a1 1 0 0 0 1 1h.15a1.06 1.06 0 1 0-.16-2.11 1.06 1.06 0 0 0-1 1.11m68.65 20.14a1.06 1.06 0 1 0 .18 2.12 1.06 1.06 0 0 0-.18-2.12zm-4.12 10.3a1.06 1.06 0 0 0 .18 2.11 1.06 1.06 0 0 0-.14-2.11m-8.23 8.75a1.06 1.06 0 1 0 .16 2.11 1.06 1.06 0 0 0 1-1.11 1 1 0 0 0-1-1h-.15m-10.89 5.33a1.06 1.06 0 0 0-1 1.11 1.06 1.06 0 1 0 2.12-.08v-.1a1.05 1.05 0 0 0-1.1-1m-12.84 1.79a1.06 1.06 0 1 0 .08 2.12h.1a1.06 1.06 0 0 0-.18-2.11M181.2 65.1a1.06 1.06 0 1 0 1.15 1 1.06 1.06 0 0 0-1.15-1zm-11.11-5.61a1.06 1.06 0 0 0 .08 2.12h.1a1.06 1.06 0 0 0-.18-2.11m-8.25-8.76a1.06 1.06 0 0 0 .18 2.11 1.06 1.06 0 0 0-.14-2.11m-4.6-20.31a1.06 1.06 0 0 0 .18 2.11 1.06 1.06 0 0 0-.14-2.11m30.14 28a2.08 2.08 0 1 0-2.08 2.08 2.08 2.08 0 0 0 2.08-2.08zm14.36-2.09a2.09 2.09 0 1 0 2.08 2.1 2.08 2.08 0 0 0-2.07-2.09m7.13-4.14a2.09 2.09 0 1 0 2.04 2.11 2.1 2.1 0 0 0-2.13-2.13m7.56-4.19a2.08 2.08 0 1 0-2.08 2.09 2.08 2.08 0 0 0 2.08-2.09zm-38.09 4.1a2.09 2.09 0 1 0 2.08 2.1 2.08 2.08 0 0 0-2.07-2.09m-5.52-6.18A2.09 2.09 0 1 0 174.9 48a2.08 2.08 0 0 0-2.08-2.08M256.32 28h12.89v17.2h4.53V28h11.76l1.09-3h-29.17zm-104.51-3h-4.53v20.2h20.66l1.11-3h-17.24zm42.11 0l10.92 20h4.85l-10.92-19.95zm-16.5 20h4.85l10.91-19.95h-4.85zm65.13-5l-19-14.92H219V45h4.53V30l19 15h4.52V25.05h-4.52zm91.54-6.49h-13.88a2.53 2.53 0 0 1-2.75-2.29 1.62 1.62 0 0 1 0-.22v-.56A2.48 2.48 0 0 1 320 28h18.9l1.1-3h-21.16c-3.81 0-5.75 2.57-5.8 5.12v1.32c0 2.59 2 5.27 5.91 5.27h13.88a2.53 2.53 0 0 1 2.75 2.29 1.21 1.21 0 0 1 0 .19v.56a2.49 2.49 0 0 1-2.54 2.44h-18.9l-1.1 3h21.16c3.81 0 5.75-2.57 5.8-5.12v-1.33c0-2.58-2-5.26-5.91-5.26m-313 0H7.17a2.53 2.53 0 0 1-2.75-2.29 1.21 1.21 0 0 1 0-.19v-.56A2.48 2.48 0 0 1 6.94 28h18.92L27 25H5.8C2 25.09.05 27.62 0 30.17v1.32c0 2.59 2 5.27 5.91 5.27h13.88a2.53 2.53 0 0 1 2.75 2.29 1.21 1.21 0 0 1 0 .19v.56A2.49 2.49 0 0 1 20 42.24H1.1l-1.1 3h21.16c3.81 0 5.75-2.57 5.8-5.12v-1.38c0-2.58-2-5.26-5.91-5.26M296.16 45h4.53V25.05h-4.53zM36.83 28h12.88v17.2h4.53V28H66l1.1-3H37.92zm62 0l1.1-3H77v20.2h21.86l1.1-3h-18.4v-5.67h12.87l1.09-2.94h-14V28zm19.25 14.22h17.24l-1.11 3h-20.66V25.05h4.53z" fill="#243882"/></svg>