<svg xmlns="http://www.w3.org/2000/svg" width="56" height="56" fill="none"><path fill="#F0F3FA" d="M0 0h56v56H0z"/><path fill="url(#a)" fill-rule="evenodd" d="M11.048 27h33.904c1.134 0 2.048.927 2.048 2.077v5.846c0 1.15-.914 2.077-2.048 2.077H11.048C9.914 37 9 36.074 9 34.923v-5.846C9 27.927 9.914 27 11.048 27" clip-rule="evenodd"/><path fill="#7B3B39" fill-rule="evenodd" d="M44.952 27.5H11.048c-.852 0-1.548.696-1.548 1.577v5.846c0 .88.696 1.577 1.548 1.577h33.904c.852 0 1.548-.696 1.548-1.577v-5.846c0-.88-.696-1.577-1.548-1.577m0-.5H11.048C9.914 27 9 27.927 9 29.077v5.846C9 36.073 9.914 37 11.048 37h33.904C46.086 37 47 36.074 47 34.923v-5.846c0-1.15-.914-2.077-2.048-2.077" clip-rule="evenodd"/><path fill="url(#b)" fill-rule="evenodd" d="M40 26c-.736-6.2-5.824-11-11.985-11S16.735 19.832 16 26z" clip-rule="evenodd"/><path fill="url(#c)" fill-rule="evenodd" d="M40 25.968a12.3 12.3 0 0 0-.766-3.052s-1.227-1.303-4.66-1.303c-3.463 0-4.413 1.78-7.325 1.907-1.962-.032-3.61-1.02-5.448-1.02-1.87 0-4.176.988-5.801 3.5 0 0 1.686-1.5 4.812-1.5s4.291 1.5 6.897 1.5 5.18-2.035 8.061-2.035S40 25.968 40 25.968" clip-rule="evenodd"/><path fill="url(#d)" fill-rule="evenodd" d="M38.957 22.215C37.884 21.357 35.096 19 32.337 19 27.678 19 23.77 24.76 20 26h20c-.153-1.303-.488-2.625-1.043-3.785" clip-rule="evenodd"/><path fill="url(#e)" fill-rule="evenodd" d="M40 26v-.604a1.7 1.7 0 0 0-.061-.381c-.154-.732-.39-1.4-.666-2.067-.03-.032-1.204-.948-4.606-.948-3.464 0-4.255 1.373-7.167 1.5a15 15 0 0 1-2.977-.414c-.703.55-1.363 1.098-2.07 1.598 2.054.35 3.202 1.316 5.317 1.316 2.605 0 5.18-2 8.061-2C38.651 24 40 26 40 26" clip-rule="evenodd"/><path fill="#F0F3FA" fill-rule="evenodd" d="m20 35-2.205-6h-1.99l.195.449L14 35h1.61l.39-1h2l.335 1zm-2.428-2.327L17 30.71l-.6 1.963zM39 35l-2.205-6h-1.99l.195.449L33 35h1.61l.39-1h2l.335 1zm-2.428-2.327L36 30.71l-.6 1.963zM25.727 30.6c0-.08-.273-1.253-.273-1.253S24.727 29 23.636 29c-1.09 0-2.363.613-2.363 1.493v.587s-.122.96 2.333 1.707c.529.16.576.373.576.533 0 .213-.394.347-.94.347-.484 0-1.06-.08-1.666-.32L21 34.44s.818.56 2.333.56C24.818 35 26 34.413 26 33.293s-.606-1.6-2.454-2.106c-.546-.15-.546-.404-.546-.564 0-.123.333-.396.91-.396.423 0 1.06.106 1.817.373m6 0c0-.08-.273-1.253-.273-1.253S30.727 29 29.636 29c-1.09 0-2.363.613-2.363 1.493v.587s-.122.96 2.333 1.707c.529.16.576.373.576.533 0 .213-.394.347-.94.347-.484 0-1.06-.08-1.666-.32L27 34.44s.818.56 2.333.56C30.818 35 32 34.413 32 33.293s-.606-1.6-2.454-2.106c-.546-.15-.546-.404-.546-.564 0-.123.333-.396.91-.396.423 0 1.06.106 1.817.373m9.11-2.6H43l-1 1.5h-2zm-.939 2H42v5h-2v-4.613z" clip-rule="evenodd"/><defs><linearGradient id="a" x1="28" x2="28" y1="27" y2="37" gradientUnits="userSpaceOnUse"><stop offset=".086" stop-color="#F2A00A"/><stop offset=".453" stop-color="#DF1922"/></linearGradient><linearGradient id="b" x1="15" x2="41.5" y1="23.5" y2="24" gradientUnits="userSpaceOnUse"><stop stop-color="#FFC812"/><stop offset=".587" stop-color="#F7731F"/><stop offset=".672" stop-color="#F66721"/></linearGradient><linearGradient id="c" x1="16.5" x2="24" y1="24.5" y2="24" gradientUnits="userSpaceOnUse"><stop stop-color="#FEF010"/><stop offset="1" stop-color="#E8AF18"/></linearGradient><linearGradient id="d" x1="19" x2="40.5" y1="26" y2="25.5" gradientUnits="userSpaceOnUse"><stop offset=".156" stop-color="#F48218"/><stop offset=".447" stop-color="#FBBA0A"/><stop offset=".963" stop-color="#F97517"/></linearGradient><linearGradient id="e" x1="22" x2="41.5" y1="24.5" y2="25" gradientUnits="userSpaceOnUse"><stop offset=".24" stop-color="#FFF100"/><stop offset=".849" stop-color="#F17418"/></linearGradient></defs></svg>