<svg xmlns="http://www.w3.org/2000/svg" width="56" height="56"><path fill="#033678" d="M0 0h56v56H0z"/><path fill="#fff" d="M43.164 16.516h.658q.782 0 .782-.766a.66.66 0 0 0-.186-.484q-.186-.19-.526-.19a.77.77 0 0 0-.484.161.5.5 0 0 0-.203.402h-1.394q0-.476.265-.849.264-.372.732-.579A2.5 2.5 0 0 1 43.843 14q1.005 0 1.58.46.576.458.576 1.261 0 .39-.24.737a1.7 1.7 0 0 1-.691.559q.48.173.753.53.273.351.273.872 0 .808-.62 1.291-.622.485-1.631.485-.593 0-1.101-.224a1.74 1.74 0 0 1-.765-.625 1.63 1.63 0 0 1-.261-.91h1.403q0 .277.223.48a.8.8 0 0 0 .55.203q.369 0 .588-.203a.7.7 0 0 0 .22-.526q0-.455-.228-.645t-.63-.19h-.678z"/><path fill="#fff" fill-rule="evenodd" d="M29.81 21H21v16h9.112c2.507 0 4.54-2.05 4.54-4.654a4.76 4.76 0 0 0-2.035-3.933 4.46 4.46 0 0 0 1.43-3.296c0-2.43-1.897-4.117-4.238-4.117zM25 24.027h3.599c2.399 0 2.266 3.349 0 3.349H25v-3.35zm3.599 6.375H25V34h3.599c1.003 0 1.816-.779 1.816-1.782a1.816 1.816 0 0 0-1.816-1.816"/><path fill="#fff" d="M14 16h6v2h-4v22h4v2h-6zm26 0h-6v2h4v22h-4v2h6z"/></svg>