<svg xmlns="http://www.w3.org/2000/svg" width="56" height="56" fill="none"><path fill="#F0F3FA" d="M0 0h56v56H0z"/><path fill="#FE6B04" fill-rule="evenodd" d="M28 12c-2 0-2.5 1.88-4.411 1.88s-3.497-.64-4.96-.28c-1.464.4-2.44 2.72-3.538 3.28-1.098.6-3.822.52-4.594 1.84s-.692 3.24-1.139 4.64S7 25.68 7 27.64s1.789 3 2.318 4.88c.528 1.88.122 3.24.853 4.28.732 1.04 3.619 1.12 4.839 2.24s1.707 2.6 3.334 3.2c1.626.6 3.537-.4 5.163-.12s3.09 1.84 4.27 1.88h.447c1.179-.04 2.683-1.56 4.269-1.88 1.585-.32 3.496.72 5.163.12 1.627-.6 2.155-2.08 3.334-3.2 1.22-1.12 4.107-1.2 4.839-2.24.731-1.04.325-2.4.853-4.28.53-1.88 2.318-2.92 2.318-4.88s-1.91-2.84-2.358-4.28c-.447-1.44-.366-3.32-1.139-4.64-.772-1.32-3.456-1.24-4.594-1.84-1.098-.6-2.074-2.92-3.537-3.28-1.464-.4-3.05.28-4.96.28C31.368 13.88 30 12 28 12" clip-rule="evenodd"/><path fill="#F0F3FA" fill-rule="evenodd" d="M24 21v4h-1s-.632-3-2.384-3C18.793 22 18 24.872 18 26.624v2.241c0 1.019.607 3.994 2.393 3.994S22.851 31.549 23 30h1v4h-1s.107-.57-.488-.57-.855.57-2.417.57S15 32.288 15 27.928 17.269 21 20.207 21c1.264 0 1.64.774 2.16.733.521-.04.633-.733.633-.733zm12 0-5 12h-1v1h4v-1h-1.5l1.037-3h4.147l.896 3H37v1h6v-1h-1.29L38 21zm1.5 8L36 24l-2 5zm-9.725-5h-.047C27.115 24 26 23.997 26 25.355c0 .645.538 1.084.538 1.084S25 26.98 25 28.142 26.012 30 27.025 30s1.538-.774 1.538-.774.4.426 1.937.426V29s-.871 0-1.188-.316L31 27h-1.538L29 28l-1-1.252s1.425-.658 1.425-1.51c0-.85-1.05-1.238-1.65-1.238M28 28.607C28 28.529 26.896 27 26.896 27c-.413.116-.696.6-.696 1.026 0 .658.338 1.161.863 1.161.524.039.937-.348.937-.58m-.616-2.722c.046.06.076.102.076.115 0 0 .535-.565.54-1 .002-.206-.114-.354-.465-.342-.364.013-.525.174-.535.386-.014.312.25.662.384.84Z" clip-rule="evenodd"/></svg>