<svg xmlns="http://www.w3.org/2000/svg" width="56" height="56"><path fill="#8629FF" d="M0 0h56v56H0z"/><path fill="#fff" d="M32 21.5a1.5 1.5 0 1 1-3 0 1.5 1.5 0 0 1 3 0M49.1 23h1.83c.04 0 .07.04.07.08v8.84c0 .04-.04.08-.09.08H49.1c-.04 0-.09-.03-.09-.07v-.97c0-.03 0-.04-.04 0a4.04 4.04 0 0 1-2.6 1.04c-2.48 0-3.88-1.59-4.28-3.62-.52-2.65 1.37-5.38 4.28-5.38a4.2 4.2 0 0 1 1.63.37c.34.15.68.43.98.68.03.02.03-.04.03-.1v-.87c0-.04.06-.08.1-.08zM44 27.5c0 1.43.9 2.5 2.5 2.5 1.41 0 2.5-1.12 2.5-2.5S48 25 46.5 25a2.4 2.4 0 0 0-2.5 2.5m-5.79-4.19a4.48 4.48 0 0 0-3.37.04c-.2.08-.38.2-.56.33l-.16.1c-.05.04-.12 0-.12-.06v-.63c0-.04-.08-.09-.12-.09h-1.77c-.04 0-.11.06-.11.1v8.81c0 .05.04.09.08.09h1.83c.05 0 .09-.04.09-.08v-5.29A2.61 2.61 0 0 1 36.52 25 2.55 2.55 0 0 1 39 27.51v4.39c0 .04.04.1.08.1h1.84c.04 0 .08-.06.08-.1v-4.52c0-2.04-1.34-3.5-2.79-4.07M10.57 26c-.5-.61-1.26-1-2.05-.99A2.47 2.47 0 0 0 6 27.5C6 28.87 7.06 30 8.52 30c.8 0 1.66-.3 2.16-.92a.08.08 0 0 1 .11-.02l1.29 1.06c.03.03.04.09.01.12A4.55 4.55 0 0 1 8.52 32 4.51 4.51 0 0 1 4 27.5a4.51 4.51 0 0 1 8.1-2.74c.02.03.01.09-.02.11l-1.4 1.14a.08.08 0 0 1-.1-.02zm18.4 4.85A3.41 3.41 0 0 0 31 27.51c0-2.17-1.4-4.51-4.47-4.51-2.18 0-4.53 1.4-4.53 4.5 0 1.36.43 2.5 1.24 3.29a4.6 4.6 0 0 0 3.29 1.2c1.54 0 2.47.69 2.47 1.85 0 1.14-1.18 1.81-2.5 1.81-1.33 0-2.52-.7-2.56-2 0-.01-.01-.04-.03-.05a.1.1 0 0 0-.05-.02H22.1c-.02 0-.04 0-.06.02a.1.1 0 0 0-.02.05c0 1.11.34 2.05 1 2.73.77.79 1.97 1.2 3.46 1.2 2.17 0 4.51-1.16 4.51-3.74A2.9 2.9 0 0 0 28.97 31a.08.08 0 0 1 0-.15M26.51 30C25 30 24 28.99 24 27.47c0-1.58.94-2.47 2.52-2.47C28 25 29 25.96 29 27.47c0 1.52-.97 2.53-2.48 2.53zM12 27.5a4.5 4.5 0 1 1 9.01 0 4.5 4.5 0 0 1-9.01 0m2 0a2.5 2.5 0 1 0 5 0c0-1.4-1.1-2.5-2.5-2.5S14 26.1 14 27.5"/></svg>