<svg xmlns="http://www.w3.org/2000/svg" width="56" height="56"><path fill="#F0F3FA" d="M0 0h56v56H0z"/><ellipse cx="28" cy="28" fill="url(#a)" rx="18.561" ry="7.531" transform="rotate(-25.254 28 28)"/><path fill="#29508A" d="M20.606 23.328a.8.8 0 0 1 .392.721v1.567c0 .554-.29.851-.738.873-.358.017-.657-.45-.732-.873-.342-1.923-2.164-2.327-3.032-2.288-4.11.328-4.72 3.756-4.883 5.565-.163 1.808 1.038 3.723 3.5 3.638s3.967-1.681 4.19-1.787c.338-.16.759-.093.957.234.174.285.145.663 0 .808-1.823 1.821-4.557 2.234-5.697 2.212-5.583.086-6.694-3.538-6.551-5.36.61-5.383 5.413-6.638 8.094-6.638s4.06 1.05 4.5 1.328M26.883 22h-3.709c-.229 0-.802.112-.802.562s.458.883.688 1.043c.344 5.499 1.93 8.67 2.179 9.271S25.927 34 26.883 34c.765 0 1.292-.244 1.568-.542 2.569-2.777 5.18-8.047 6.346-10.234.185-.047.559-.245.574-.662a.517.517 0 0 0-.478-.562h-3.48c-.573.16-.726.983 0 1.224.582.193.689.562.67.723-.704 2.504-3.072 5.953-4.168 7.364-1.261-2.428-1.644-7.003-1.605-7.485.03-.385.395-.562.573-.602.134-.073.413-.309.459-.662s-.287-.522-.459-.562M48 24.098v1.614c0 .444-.353.723-.622.723-.363 0-.659-.193-.898-1.06-.3-1.085-.875-1.808-3.04-1.976-2.164-.169-4.604 1.855-4.766 5.06-.16 3.205 1.543 4.097 3.73 4.024 1.75-.057 3.2-1.084 3.707-1.59.198-.198.692-.38 1.005-.053.313.328.247.803.123.945-1.795 2.048-4.169 2.038-5.456 2.192-1.405.17-7.3-.506-6.747-5.518s5.135-6.506 8.013-6.458 4.329 1.133 4.65 1.398c.259.212.308.554.3.699z"/><rect width="4.004" height="1" x="20" y="33" fill="#29508A" rx=".5"/><defs><linearGradient id="a" x1="32.691" x2="28.181" y1="20.356" y2="34.542" gradientUnits="userSpaceOnUse"><stop stop-color="#FFD542"/><stop offset=".098" stop-color="#FEF9D3"/><stop offset=".286" stop-color="#FDDF42"/><stop offset=".966" stop-color="#FDBB2B"/></linearGradient></defs></svg>