<svg xmlns="http://www.w3.org/2000/svg" width="56" height="56"><path fill="#F0F3FA" d="M0 0h56v56H0z"/><path fill="#D14132" d="m23.96 19.59.3-9.5-2.19.69-.2 6.87-5.96-3.4-1.74 1.69 8.3 4.4z" opacity=".8"/><path fill="#D14132" d="m20.5 22.55-4.6-8.3-1.72 1.68 3.53 6.04-6.96.23-.48 2.23 9.34-.46.88-1.42z" opacity=".8"/><path fill="#D14132" d="m18.88 27.1-8.13-4.91-.47 2.23 5.9 3.55-5.9 3.53.62 2.34 7.9-5.06.08-1.67z" opacity=".8"/><path fill="#D14132" d="m19.7 31.93-9.43-.43.62 2.33 6.86.17-3.42 5.95L16 41.7l4.44-8.28-.75-1.5z" opacity=".8"/><path fill="#E8A82F" d="m28.74 18.7 4.95-8.03-2.29-.65L27.86 16l-3.6-5.91-2.2.7 5.05 7.91z" opacity=".8"/><path fill="#E8A82F" d="m33.15 20.3 8.25-4.32-1.73-1.66-5.9 3.22-.05-6.87-2.33-.66.35 9.39 1.4.91z" opacity=".8"/><path fill="#E8A82F" d="m36.32 24.2 9.4.18-.57-2.32H38.2l3.22-6.07-1.74-1.69-4.16 8.43z" opacity=".8"/><path fill="#E8A82F" d="m37.05 28.61 7.97 5.13.64-2.31-5.88-3.63 5.95-3.42-.57-2.36-8 4.92-.1 1.67z" opacity=".8"/><path fill="#1696A7" d="m35.38 33.19 4.47 8.43 1.69-1.71-3.39-6.1 6.87-.06.66-2.33-9.39.36-.9 1.4z" opacity=".8"/><path fill="#1696A7" d="m31.68 36.47-.25 9.4 2.33-.62.05-6.9 6.04 3.27 1.7-1.73-8.4-4.21z" opacity=".8"/><path fill="#1696A7" d="m27 37.29-4.84 8 2.32.65 3.4-5.95 3.55 5.88 2.34-.63-5.1-7.89L27 37.3z" opacity=".8"/><path fill="#1696A7" d="m22.7 35.65-8.38 4.3 1.67 1.75 6.1-3.28.06 6.87 2.34.65-.38-9.39-1.4-.9z" opacity=".8"/></svg>