<svg xmlns="http://www.w3.org/2000/svg" width="56" height="56"><path fill="#0086FF" d="M0 0h56v56H0z"/><path fill="#fff" d="M50.503 25h-.994c-.31 0-.509.191-.509.487v2.86C49 29.473 48.385 30 47.5 30c-.931 0-1.5-.542-1.5-1.653v-2.86c0-.296-.202-.487-.511-.487h-.997c-.31 0-.492.191-.492.487v3.44c0 1.756 1.087 3.077 2.693 3.077 1.024 0 1.748-.129 2.307-.795l.168.38c.113.244.249.415.544.415h.79c.312 0 .498-.18.498-.474v-6.043c0-.296-.187-.487-.497-.487m-8 5h-1.531c-.683 0-.972-.346-.972-.999v-3.514c0-.296-.172-.487-.481-.487h-1.035c-.31 0-.484.191-.484.487v4.003c0 1.585.83 2.51 2.493 2.51h2.012c.31 0 .497-.14.497-.435v-1.097C43 30.172 42.814 30 42.503 30M12.5 25.46c-.031-.31-.202-.46-.513-.46h-.823a.64.64 0 0 0-.59.326L8.5 28.73l-2.017-3.402c-.124-.225-.328-.327-.59-.327h-.884c-.311 0-.482.15-.513.46l-.492 6.09c-.032.326.14.45.465.45h.994c.31 0 .522-.11.537-.42l.192-3.32 1.195 2.058c.125.223.329.326.59.326h.91c.264 0 .45-.09.59-.326l1.351-2.209.172 3.468c.016.313.17.423.48.423h1.07c.329 0 .481-.126.45-.452zM28.485 25h-.85c-.294 0-.496.12-.543.403l-.092.324c-.077-.207-.466-.727-1.5-.727-1.956 0-3.515 1.246-3.501 3.497.013 2.25 1.365 3.503 3.612 3.503 1.02 0 1.389-.54 1.389-.65 0 .935-.272 1.65-1.746 1.65a4.5 4.5 0 0 1-1.755-.347c-.294-.135-.527-.075-.667.206l-.355.881c-.14.269-.094.49.17.638.823.444 1.832.622 2.81.622C27.894 35 29 33.533 29 31.488v-6.041c-.001-.296-.204-.447-.515-.447M25.5 30c-.848-.006-1.514-.565-1.5-1.5s.663-1.507 1.5-1.5 1.5.652 1.5 1.497-.652 1.509-1.5 1.503m-4.98-5h-.854c-.295 0-.59.104-.637.386l-.029.34c-.48-.488-.836-.726-2-.726-1.956 0-3 1.648-3 3.512C14 30.375 15.075 32 17 32c1.21 0 1.518-.288 2-.791l.139.415c.046.268.234.376.527.376h.854c.31 0 .48-.14.48-.436v-6.09c0-.296-.17-.474-.48-.474m-3.02 5c-.777 0-1.505-.526-1.5-1.5.006-.974.698-1.513 1.5-1.5s1.5.585 1.5 1.5-.723 1.5-1.5 1.5m19.016-5h-.854c-.295 0-.59.104-.637.386l-.03.34c-.48-.488-.835-.726-2-.726-1.955 0-3 1.648-3 3.512 0 1.863 1.076 3.488 3 3.488 1.21 0 1.519-.288 2-.791l.14.415c.046.268.233.376.527.376h.854c.31 0 .48-.14.48-.436v-6.09c0-.296-.17-.474-.48-.474m-3.02 5c-.778 0-1.506-.526-1.5-1.5.005-.974.698-1.513 1.5-1.5.801.013 1.5.585 1.5 1.5s-.723 1.5-1.5 1.5"/></svg>