<svg xmlns="http://www.w3.org/2000/svg" width="56" height="56"><path fill="url(#a)" d="M0 0h56v56H0z"/><path fill="#fff" fill-rule="evenodd" d="M4.288 23h3.716c.986-.008 2.966.627 2.994 3.233.03 2.606-1.984 3.725-2.994 3.767H6v2H4v-8.725c-.008-.092.038-.275.288-.275m2.027 2h1.443c.41-.016 1.233.252 1.242 1.456s-.825 1.53-1.242 1.542H6.315c-.1.013-.301-.03-.31-.3-.009-.272-.004-1.69 0-2.392 0-.126.018-.305.31-.305zm11.989 4.16h-5.015c.058.358.48 1.079 1.7 1.099.133.004.471-.021.766-.157a.53.53 0 0 1 .394-.059c.16.048.943.375 1.315.533.075.048.18.193 0 .389-.226.245-.92.99-2.474 1.03s-3.772-1.126-3.732-3.82 2.257-3.647 3.732-3.647c1.368 0 3.745.925 3.612 4.29-.004.114-.07.343-.298.343zm-1.871-1.73h-2.978c-.106 0-.28-.068-.133-.34.153-.273.67-.827 1.636-.818.966.008 1.475.576 1.577.817.068.114.143.341-.102.341"/><path fill="#fff" d="M20.662 23h-1.293c-.283 0-.364.197-.369.296v5.995C19 31.12 20.312 32 20.985 32H23v-1.729c0-.2-.22-.26-.323-.271h-1.044c-.517-.025-.623-.456-.633-.663V27h.954c.192 0 .261-.17.261-.295v-1.374c0-.274-.174-.326-.261-.331H21v-1.704c0-.212-.23-.286-.338-.296m4.494 1.606h-1.297c-.284 0-.316.175-.316.311v6.767c0 .253.196.316.27.316h1.43c.212 0 .298-.159.298-.264V28.28c0-1.602 1.458-1.812 1.722-1.865.211-.042.271-.172.275-.232.003-.355.009-1.117 0-1.328-.009-.21-.187-.253-.275-.248-.678 0-1.384.404-1.722.606v-.358c-.009-.202-.26-.25-.385-.248z"/><path fill="#fff" fill-rule="evenodd" d="M48.206 32C50.302 32 52 30.286 52 28.17c0-2.114-1.698-3.828-3.794-3.828s-3.793 1.714-3.793 3.829S46.111 32 48.207 32zm0-1.713a2.106 2.106 0 0 0 2.097-2.116 2.106 2.106 0 0 0-2.096-2.116 2.106 2.106 0 0 0-2.097 2.116c0 1.169.939 2.116 2.096 2.116m-8.622-.829a3.36 3.36 0 0 0 2.02-3.098c0-1.856-1.476-3.36-3.295-3.36-1.355 0-2.518.833-3.025 2.024l-.732 1.257v.001l-.002.003-1.395 2.636a2.085 2.085 0 0 1-1.935 1.335c-1.15 0-2.083-.95-2.083-2.124 0-1.173.933-2.125 2.083-2.125 1.05 0 1.917.79 2.062 1.82.059-.001.122-.03.176-.12.098-.163.622-1.11.94-1.688a3.77 3.77 0 0 0-3.178-1.755c-2.095 0-3.793 1.732-3.793 3.868S29.125 32 31.22 32c1.523 0 2.836-.915 3.44-2.235l.895-1.56 1.294-2.357a1.55 1.55 0 0 1 1.46-1.062c.852 0 1.543.704 1.543 1.574 0 .869-.691 1.573-1.543 1.573a1.5 1.5 0 0 1-.915-.306c-.232-.03-.317.037-.317.037-.317.236-.204.621-.108.784l.683 1.204 1.323 2.316h1.86c.051-.015.124-.093 0-.29-.113-.18-.82-1.444-1.251-2.22"/><rect width="2" height="2" x="42" y="24" fill="#fff" rx=".3"/><rect width="2" height="5" x="42" y="27" fill="#fff" rx=".3"/><defs><linearGradient id="a" x1="0" x2="56" y1="28" y2="28" gradientUnits="userSpaceOnUse"><stop stop-color="#012315"/><stop offset="1" stop-color="#01D2C4"/></linearGradient></defs></svg>