<svg xmlns="http://www.w3.org/2000/svg" width="56" height="56"><path fill="#00939A" d="M0 0h56v56H0z"/><path fill="#ECB833" d="M43.244 25.803q-7.566 5.14-14.011-1.108C37.942 21.675 42.53 17.008 47 21.01l-3.316 4.293h-.005v.006h-.006v.008h-.011v.002h-.002q-.003.001-.005.003v.004h-.002v.004h-.002l-.001.002q-.002.002-.003.004h-.001v.002c-.006 0-.011.009-.014.009h-.001v.004l-.004.004-.006.004v.002h-.001c0 .004-.009.013-.012.015v.002h-.002v.01h-.002v.003h-.002v.003l-.003.001h-.001l-.004.003q-.003.002-.003.007l-.002.002-.009.003v.001l-.002.002a1 1 0 0 0-.044.051l-.002.002c0 .004-.006.009-.006.014v.003c-.006.002-.019.014-.025.014v.003c-.013.005-.023.016-.038.02v.002h-.004v.002h-.003l-.002.004-.006.002v.002l-.01.005v.004h-.003v.001l-.02.013-.009.01h-.002v.002l-.003.005v.001h-.004c0 .078-.122.107-.122.158h-.002c0 .005-.014.017-.014.024h-.002l-.009.012h-.002c-.006.005-.002.03-.002.037z"/><path fill="#fff" d="M43.693 25.294C30.536 36.07 25.377 10.579 9 20.226L27.454 44"/></svg>