<svg xmlns="http://www.w3.org/2000/svg" width="56" height="56" fill="none"><path fill="#ED1B24" d="M0 0h56v56H0z"/><path fill="#D8D9DD" fill-rule="evenodd" d="M28 11c6.635 0 12 5.394 12 12.066 0 2.186-.593 4.23-1.581 6.02L28 47 17.666 29.199A12.15 12.15 0 0 1 16 23.066C16 16.394 21.365 11 28 11" clip-rule="evenodd"/><path fill="#6EB0C1" fill-rule="evenodd" d="M28 13c5.524 0 10 4.476 10 10s-4.476 10-10 10-10-4.476-10-10a9.98 9.98 0 0 1 10-10" clip-rule="evenodd"/><path fill="#5F9038" fill-rule="evenodd" d="m37.796 21-2.775-2L33 21l-3.5-4-7.5 5-2-2-1.802 1c-.141.631-.198 1.654-.198 2.312C18 28.664 22.475 33 27.997 33s9.998-4.336 9.998-9.688A10.4 10.4 0 0 0 37.796 21" clip-rule="evenodd"/><path fill="#3E6429" fill-rule="evenodd" d="M30 17.57c0 .93-.09 2.26-1.581 4.368-.76 1.067.281 1.574 3.096 3.416 2.787 1.842-7.199-.754-8.015-.354L22 22l7.5-5zM35 19c.141.511.31 1.391.282 1.93-.056.796 0 .71 0 .71L37 24l-4-3z" clip-rule="evenodd"/><path fill="url(#a)" fill-rule="evenodd" d="m38.008 29.793-5.716 9.825C32.49 35.416 32.225 25.37 23.5 25c-.056-.54 1.733-.486 4.5-.174 2.965.313 6.845 1.276 10.008 4.967" clip-rule="evenodd"/><path fill="#989697" fill-rule="evenodd" d="M35.852 33.492c-1.186-2.186-4.777-7.896-10.114-8.492.028-.085.113-.142.367-.114 1.101.057 6.535.565 10.516 7.294l-.77 1.312Z" clip-rule="evenodd"/><path fill="#EDEDED" fill-rule="evenodd" d="M27 19.02c0-1.664-1.347-3.02-3-3.02a2.989 2.989 0 0 0-2.571 4.53L24 25l2.602-4.47c.245-.462.398-.955.398-1.51M25 19c0-.558-.442-1-1-1s-1 .442-1 1 .442 1 1 1 1-.442 1-1" clip-rule="evenodd"/><defs><linearGradient id="a" x1="25.5" x2="34.5" y1="24" y2="39.5" gradientUnits="userSpaceOnUse"><stop stop-color="#B2B3B3"/><stop offset=".264" stop-color="#858482"/><stop offset="1" stop-color="#41433D"/></linearGradient></defs></svg>